<?xml version="1.0" encoding="UTF-8" standalone="no"?>
<!-- Created with Inkscape (http://www.inkscape.org/) -->

<svg
   width="157.3401mm"
   height="135.14787mm"
   viewBox="0 0 157.3401 135.14787"
   version="1.1"
   id="svg5"
   xml:space="preserve"
   inkscape:version="1.2.1 (9c6d41e410, 2022-07-14)"
   sodipodi:docname="twinny.svg"
   xmlns:inkscape="http://www.inkscape.org/namespaces/inkscape"
   xmlns:sodipodi="http://sodipodi.sourceforge.net/DTD/sodipodi-0.dtd"
   xmlns="http://www.w3.org/2000/svg"
   xmlns:svg="http://www.w3.org/2000/svg"><sodipodi:namedview
     id="namedview7"
     pagecolor="#ffffff"
     bordercolor="#000000"
     borderopacity="0.25"
     inkscape:showpageshadow="2"
     inkscape:pageopacity="0.0"
     inkscape:pagecheckerboard="0"
     inkscape:deskcolor="#d1d1d1"
     inkscape:document-units="mm"
     showgrid="false"
     inkscape:zoom="0.52221046"
     inkscape:cx="445.22279"
     inkscape:cy="436.60558"
     inkscape:window-width="1920"
     inkscape:window-height="1009"
     inkscape:window-x="1912"
     inkscape:window-y="-8"
     inkscape:window-maximized="1"
     inkscape:current-layer="layer1" /><defs
     id="defs2" /><g
     inkscape:label="Calque 1"
     inkscape:groupmode="layer"
     id="layer1"
     transform="translate(-19.152179,-57.105319)"><path
       style="fill:#000000;stroke-width:0.282222"
       d="m 42.762493,191.71967 c -7.810118,-1.64822 -14.200905,-6.90969 -17.896321,-14.73383 -1.90821,-4.04018 -2.456055,-6.42349 -2.617748,-11.3881 -0.162598,-4.99237 0.228106,-7.7486 1.769922,-12.48593 1.405015,-4.31701 3.566105,-8.16624 7.840284,-13.96475 l 0.566445,-0.76846 -1.60584,-2.05377 c -5.567129,-7.11999 -8.52938,-12.7888 -10.177611,-19.47674 -3.334217,-13.52908 -1.037601,-26.995754 6.558489,-38.457024 7.276079,-10.97843 17.909238,-17.95488 31.460855,-20.64157 3.38052,-0.67021 4.131474,-0.72374 8.100382,-0.57741 10.134269,0.37364 19.98347,4.00139 28.09307,10.34749 2.41006,1.88597 2.8146,2.07379 3.58638,1.66502 0.34925,-0.18498 1.651,-1.11738 2.89278,-2.072 5.12811,-3.94227 10.54509,-6.57643 17.07444,-8.30292 5.44025,-1.43852 8.38266,-1.82319 12.54783,-1.6404 12.37819,0.54321 24.73577,6.33554 32.77121,15.36074 7.09088,7.9643 11.20641,17.18474 12.55474,28.127664 0.96418,7.82529 -1.46674,19.52975 -5.60377,26.98117 -1.98563,3.57641 -5.26084,8.30638 -6.85665,9.9022 -0.29702,0.29701 -0.53501,0.63527 -0.52887,0.75169 0.006,0.11642 0.96466,1.48167 2.13006,3.03389 4.96974,6.61927 8.01232,15.24281 8.01575,22.71889 0.003,6.32913 -2.33121,13.76955 -5.70331,18.18038 -3.93384,5.1456 -8.57652,8.12452 -14.74501,9.46097 -2.65434,0.57509 -3.2043,0.58067 -55.24983,0.56101 -49.511657,-0.0187 -52.708909,-0.0494 -54.977677,-0.52821 z M 88.63751,181.36162 c 0.36454,-0.13988 0.4194,-2.35354 0.4194,-16.92296 0,-12.62934 -0.0816,-16.76203 -0.33086,-16.76203 -0.18198,0 -1.61073,0.63332 -3.17501,1.40739 -3.2662,1.61624 -8.530371,3.40755 -12.182798,4.1456 -3.799244,0.76773 -11.984341,0.70022 -15.726531,-0.12971 -5.357735,-1.18821 -10.180726,-3.1119 -15.523489,-6.19167 l -1.359793,-0.78383 -1.551503,1.69333 c -3.774493,4.11954 -5.935646,9.3634 -6.225321,15.10525 -0.479159,9.49772 4.29743,17.10856 11.484189,18.29849 1.66694,0.276 43.472036,0.40864 44.171716,0.14014 z m 62.22607,-0.1129 c 2.56672,-0.4062 4.61532,-1.4874 6.61367,-3.49052 4.67146,-4.68261 6.36079,-12.88234 4.22059,-20.48602 -0.99617,-3.53916 -4.73387,-9.63925 -6.62211,-10.80756 -0.33529,-0.20746 -1.05689,0.0935 -2.93657,1.22479 -4.64557,2.79593 -10.26247,4.7881 -16.36329,5.80364 -4.33796,0.7221 -10.78776,0.42624 -15.25118,-0.69959 -4.47917,-1.1298 -7.04442,-2.05241 -10.37036,-3.72976 -4.36663,-2.2022 -3.88187,-4.10131 -3.88187,15.2076 0,12.53066 0.0829,16.6776 0.33867,16.93333 0.44251,0.4425 41.47658,0.48339 44.25245,0.0441 z M 70.994683,133.94447 c 10.100787,-2.00226 18.253257,-9.92274 21.234867,-20.63061 0.52686,-1.89212 0.61036,-2.94164 0.62289,-7.82946 0.016,-6.231684 -0.31343,-8.148714 -2.07468,-12.074224 -1.95705,-4.3619 -6.1745,-9.43862 -9.9975,-12.03442 -5.023548,-3.41096 -11.963367,-5.14247 -18.144901,-4.52722 -6.398229,0.63682 -11.466053,2.89167 -16.103976,7.16523 -2.799489,2.57956 -4.637639,5.04841 -6.319921,8.48841 -1.636506,3.3464 -2.402477,6.15692 -2.851201,10.461724 -0.549555,5.27213 0.250642,10.05822 2.467694,14.7596 3.104366,6.58299 7.219339,10.89081 13.245617,13.86635 5.858558,2.89273 11.48032,3.63136 17.921111,2.35462 z m -18.69466,-22.50299 c -1.644847,-0.60054 -2.439546,-1.22962 -3.332928,-2.63834 -1.053353,-1.66096 -1.273048,-2.87111 -0.857965,-4.7259 0.663796,-2.96616 3.693324,-5.188724 6.602931,-4.844114 3.661853,0.43369 6.427591,4.231364 5.542861,7.610974 -0.931957,3.56004 -4.750954,5.76715 -7.954899,4.59738 z m 24.621327,0.0222 c -1.488014,-0.47164 -3.482403,-2.61189 -3.932753,-4.22038 -1.680834,-6.00335 5.132023,-10.537694 9.812893,-6.53103 5.21973,4.46789 0.65098,12.82152 -5.88014,10.75141 z m 56.30334,22.93796 c 1.397,-0.15847 3.302,-0.49182 4.23333,-0.74078 2.08717,-0.55794 6.40742,-2.54531 8.23474,-3.78809 1.93983,-1.31929 5.57221,-4.90142 7.00771,-6.91075 6.33385,-8.86577 7.3966,-20.86952 2.69677,-30.459854 -3.8667,-7.89027 -11.24614,-13.52487 -20.197,-15.42149 -2.69468,-0.57099 -8.87021,-0.41282 -11.54527,0.29568 -5.014,1.328 -8.46533,3.29629 -12.39135,7.06679 -8.01913,7.7015 -10.95442,18.953004 -7.77164,29.790134 1.3349,4.54523 3.39371,8.05956 6.80434,11.61479 4.67467,4.87287 9.80759,7.57215 16.01392,8.42132 3.43603,0.47014 3.86367,0.47831 6.91445,0.13225 z m -19.25576,-23.15848 c -3.31338,-1.6401 -4.60665,-5.69304 -2.81965,-8.83638 2.49266,-4.384614 8.76084,-4.220604 10.9426,0.28633 1.59408,3.29292 0.13933,6.95114 -3.40164,8.55401 -1.63343,0.73939 -3.22225,0.73806 -4.72131,-0.004 z m 24.83555,0 c -3.40665,-1.68627 -4.68005,-5.4573 -2.95676,-8.75607 1.13894,-2.18018 2.8834,-3.214964 5.39817,-3.202074 2.02276,0.0104 3.04481,0.41433 4.37228,1.728174 1.1557,1.14384 1.84536,2.82779 1.85254,4.52339 0.008,1.88815 -0.35149,2.80026 -1.63338,4.14424 -2.01861,2.11637 -4.70703,2.7136 -7.03285,1.56234 z"
       id="path191" /></g></svg>
